<svg width="44" height="44" viewBox="0 0 44 44" fill="none" xmlns="http://www.w3.org/2000/svg">
<g clip-path="url(#clip0_277_1446)">
<g opacity="0.4">
<path d="M13.7549 24.1063C13.2285 24.3884 12.7127 24.6838 12.3336 24.9181C11.4269 25.4483 9.71887 26.4469 8.485 27.7011C7.68872 28.5105 6.64196 29.8561 6.44714 31.7071C6.38697 32.2785 6.41415 32.8258 6.5126 33.3457C6.61113 33.8658 6.66041 34.126 6.52877 34.2624C6.39714 34.399 6.1778 34.3656 5.73912 34.2987C3.86212 34.013 2.59365 32.9899 1.55271 31.8741C0.77434 31.0399 0.372307 30.0805 0.472018 29.0542C0.565637 28.0906 1.08071 27.3148 1.59586 26.7475C2.40891 25.8523 3.60732 25.0935 4.32502 24.6392C4.47836 24.542 4.60979 24.4588 4.71079 24.3912C7.41939 22.5767 10.6498 22.0416 13.6663 22.7853C14.3775 22.9606 14.733 23.0484 14.7645 23.2983C14.7959 23.5482 14.4489 23.7343 13.7549 24.1063Z" fill="url(#paint0_linear_277_1446)"/>
<path d="M11.891 9.69157C12.2388 9.74387 12.4127 9.77002 12.502 9.91448C12.5914 10.059 12.5291 10.2508 12.4046 10.6346C12.0861 11.6157 11.9141 12.6627 11.9141 13.75C11.9141 16.0232 12.6663 18.1208 13.9355 19.8073C14.1776 20.1291 14.2987 20.2899 14.2614 20.4554C14.224 20.621 14.0684 20.7024 13.7571 20.8653C12.9321 21.2973 11.9933 21.5417 10.9974 21.5417C7.70671 21.5417 5.03906 18.874 5.03906 15.5833C5.03906 12.2926 7.70671 9.625 10.9974 9.625C11.3011 9.625 11.5995 9.64772 11.891 9.69157Z" fill="url(#paint1_linear_277_1446)"/>
</g>
<g opacity="0.4">
<path d="M30.246 24.1063C30.7723 24.3884 31.288 24.6838 31.6672 24.9181C32.5739 25.4483 34.2819 26.4469 35.5157 27.7011C36.3121 28.5105 37.3587 29.8561 37.5536 31.7071C37.6138 32.2785 37.5866 32.8258 37.4882 33.3457C37.3897 33.8658 37.3404 34.126 37.472 34.2624C37.6037 34.399 37.8229 34.3656 38.2617 34.2987C40.1386 34.013 41.4071 32.9899 42.4481 31.8741C43.2265 31.0399 43.6286 30.0805 43.5288 29.0542C43.4351 28.0906 42.92 27.3148 42.405 26.7475C41.5919 25.8523 40.3935 25.0935 39.6757 24.6392C39.5224 24.542 39.391 24.4588 39.29 24.3912C36.5814 22.5767 33.3509 22.0416 30.3345 22.7853C29.6234 22.9606 29.2677 23.0484 29.2363 23.2983C29.2048 23.5482 29.5519 23.7343 30.246 24.1063Z" fill="url(#paint2_linear_277_1446)"/>
<path d="M30.0668 19.8073C29.8248 20.1291 29.7037 20.2899 29.7411 20.4554C29.7783 20.621 29.9339 20.7024 30.2452 20.8653C31.0702 21.2973 32.0091 21.5417 33.0049 21.5417C36.2956 21.5417 38.9633 18.874 38.9633 15.5833C38.9633 12.2926 36.2956 9.625 33.0049 9.625C32.7012 9.625 32.4029 9.64772 32.1114 9.69157C31.7636 9.74387 31.5896 9.77002 31.5003 9.91448C31.411 10.059 31.4732 10.2508 31.5979 10.6346C31.9161 11.6157 32.0883 12.6627 32.0883 13.75C32.0883 16.0232 31.3361 18.1208 30.0668 19.8073Z" fill="url(#paint3_linear_277_1446)"/>
</g>
<path d="M14.0961 26.5318C18.932 23.5415 25.066 23.5415 29.9017 26.5318C30.0444 26.62 30.225 26.7256 30.4325 26.847C31.3717 27.3966 32.8624 28.2689 33.8799 29.3031C34.5188 29.9525 35.1561 30.838 35.2721 31.9418C35.3966 33.1227 34.8954 34.2159 33.9391 35.1619C32.3595 36.7246 30.4026 38.0391 27.837 38.0391H16.161C13.5953 38.0391 11.6385 36.7246 10.0589 35.1619C9.10266 34.2159 8.60143 33.1227 8.72573 31.9418C8.84192 30.838 9.47919 29.9525 10.1181 29.3031C11.1355 28.2689 12.6263 27.3966 13.5655 26.847C13.7729 26.7256 13.9536 26.62 14.0961 26.5318Z" fill="url(#paint4_linear_277_1446)"/>
<path d="M14.207 13.7526C14.207 9.44939 17.6955 5.96094 21.9988 5.96094C26.302 5.96094 29.7905 9.44939 29.7905 13.7526C29.7905 18.0558 26.302 21.5443 21.9988 21.5443C17.6955 21.5443 14.207 18.0558 14.207 13.7526Z" fill="url(#paint5_linear_277_1446)"/>
</g>
<defs>
<linearGradient id="paint0_linear_277_1446" x1="7.6468" y1="22.5753" x2="7.06044" y2="34.4423" gradientUnits="userSpaceOnUse">
<stop stop-color="#8159D5"/>
<stop offset="1" stop-color="#6938D0"/>
</linearGradient>
<linearGradient id="paint1_linear_277_1446" x1="9.67615" y1="9.73958" x2="8.76695" y2="21.5865" gradientUnits="userSpaceOnUse">
<stop stop-color="#8159D5"/>
<stop offset="1" stop-color="#6938D0"/>
</linearGradient>
<linearGradient id="paint2_linear_277_1446" x1="36.4242" y1="22.5753" x2="35.8378" y2="34.4423" gradientUnits="userSpaceOnUse">
<stop stop-color="#8159D5"/>
<stop offset="1" stop-color="#6938D0"/>
</linearGradient>
<linearGradient id="paint3_linear_277_1446" x1="34.3714" y1="9.73958" x2="33.4622" y2="21.5865" gradientUnits="userSpaceOnUse">
<stop stop-color="#8159D5"/>
<stop offset="1" stop-color="#6938D0"/>
</linearGradient>
<linearGradient id="paint4_linear_277_1446" x1="22.0641" y1="24.4213" x2="21.6418" y2="38.1583" gradientUnits="userSpaceOnUse">
<stop stop-color="#8159D5"/>
<stop offset="1" stop-color="#6938D0"/>
</linearGradient>
<linearGradient id="paint5_linear_277_1446" x1="22.0369" y1="6.11078" x2="21.114" y2="21.6393" gradientUnits="userSpaceOnUse">
<stop stop-color="#8159D5"/>
<stop offset="1" stop-color="#6938D0"/>
</linearGradient>
<clipPath id="clip0_277_1446">
<rect width="44" height="44" fill="white"/>
</clipPath>
</defs>
</svg>
