<svg width="44" height="44" viewBox="0 0 44 44" fill="none" xmlns="http://www.w3.org/2000/svg">
<path fill-rule="evenodd" clip-rule="evenodd" d="M23.375 31.6736C23.375 27.0904 27.0904 23.375 31.6736 23.375C36.2569 23.375 39.9723 27.0904 39.9723 31.6736C39.9723 33.3036 39.5025 34.8236 38.6907 36.106L41.1693 38.5766C41.8863 39.2914 41.8882 40.4521 41.1734 41.1693C40.4585 41.8863 39.2979 41.8882 38.5807 41.1734L36.0961 38.6969C34.8159 39.5049 33.2994 39.9723 31.6736 39.9723C27.0904 39.9723 23.375 36.2569 23.375 31.6736ZM31.6736 27.0417C29.1155 27.0417 27.0417 29.1155 27.0417 31.6736C27.0417 34.2318 29.1155 36.3057 31.6736 36.3057C34.2318 36.3057 36.3057 34.2318 36.3057 31.6736C36.3057 29.1155 34.2318 27.0417 31.6736 27.0417Z" fill="url(#paint0_linear_277_1430)"/>
<g opacity="0.4">
<path d="M16.043 31.501C16.043 31.8725 16.043 32.0582 16.1304 32.194C16.2179 32.3301 16.3996 32.4127 16.763 32.5783C17.1687 32.7633 17.6834 33.0161 18.3781 33.3615L19.5595 33.9491C20.1819 34.2585 20.4932 34.4133 20.6721 34.2862C20.8511 34.1592 20.8052 33.7943 20.7134 33.0647C20.6558 32.6082 20.6263 32.1431 20.6263 31.671C20.6263 27.7423 22.6767 24.2927 25.7659 22.3336C25.9457 22.2196 26.0356 22.1626 26.0808 22.0801C26.1263 21.9976 26.1263 21.896 26.1263 21.6929V7.47701C26.1263 7.14545 26.1263 6.97968 26.0438 6.84658C25.9613 6.71348 25.813 6.63967 25.516 6.49205L20.4294 3.9628C19.2029 3.35295 18.1981 2.85333 17.3306 2.5186C16.7951 2.31202 16.5274 2.20873 16.2913 2.36366L16.2725 2.37651C16.043 2.54107 16.043 2.85089 16.043 3.47054V31.501Z" fill="url(#paint1_linear_277_1430)"/>
<path d="M41.7083 23.7151C41.7083 24.9751 41.7083 25.6053 41.4733 25.6956C41.2383 25.786 40.7843 25.2833 39.8767 24.2779C37.8547 22.0385 34.9285 20.6311 31.6736 20.6311C31.036 20.6311 30.411 20.6851 29.8028 20.7887C29.3579 20.8646 29.1353 20.9026 29.0052 20.7928C28.875 20.6829 28.875 20.4683 28.875 20.0393V7.96207C28.875 7.78876 29.0158 7.64844 29.1892 7.64844H33.097C34.7428 7.64838 36.1181 7.64833 37.2104 7.79844C38.3671 7.95737 39.4084 8.30734 40.2422 9.15949C41.0718 10.0075 41.4088 11.0596 41.5624 12.2272C41.7085 13.3377 41.7083 14.7381 41.7083 16.4247V23.7151Z" fill="url(#paint2_linear_277_1430)"/>
<path d="M13.293 3.59218C13.293 2.99171 13.293 2.69147 13.0806 2.52632C13.0561 2.50729 13.0231 2.48619 12.9956 2.47196C12.7566 2.34838 12.5046 2.46477 12.0006 2.69753C11.1558 3.08772 10.1842 3.65134 8.99791 4.33956L6.63559 5.70994C5.77744 6.20771 5.0475 6.63112 4.47618 7.04367C3.86685 7.48365 3.35089 7.97042 2.97127 8.6368C2.59254 9.30159 2.43465 9.99576 2.36165 10.748C2.29291 11.4563 2.29295 12.3113 2.29297 13.3217V28.4268C2.29295 29.7634 2.29293 30.8686 2.37802 31.733C2.46396 32.6058 2.6537 33.4827 3.22491 34.1915C3.84767 34.9641 4.72558 35.4893 5.70341 35.6638C6.60744 35.8252 7.46425 35.554 8.25405 35.1974C9.03491 34.8449 10.0832 34.2368 11.218 33.5784C11.7371 33.2772 12.2014 33.0079 12.6346 32.784C12.9665 32.6126 13.1325 32.5268 13.2127 32.395C13.293 32.2634 13.293 32.0899 13.293 31.7431V3.59218Z" fill="url(#paint3_linear_277_1430)"/>
</g>
<defs>
<linearGradient id="paint0_linear_277_1430" x1="32.5866" y1="23.5513" x2="31.5007" y2="41.82" gradientUnits="userSpaceOnUse">
<stop stop-color="#8159D5"/>
<stop offset="1" stop-color="#6938D0"/>
</linearGradient>
<linearGradient id="paint1_linear_277_1430" x1="21.1093" y1="2.59715" x2="15.266" y2="33.5352" gradientUnits="userSpaceOnUse">
<stop stop-color="#8159D5"/>
<stop offset="1" stop-color="#6938D0"/>
</linearGradient>
<linearGradient id="paint2_linear_277_1430" x1="35.3231" y1="7.82207" x2="33.8234" y2="25.7542" gradientUnits="userSpaceOnUse">
<stop stop-color="#8159D5"/>
<stop offset="1" stop-color="#6938D0"/>
</linearGradient>
<linearGradient id="paint3_linear_277_1430" x1="7.81993" y1="2.74197" x2="2.0196" y2="34.9883" gradientUnits="userSpaceOnUse">
<stop stop-color="#8159D5"/>
<stop offset="1" stop-color="#6938D0"/>
</linearGradient>
</defs>
</svg>
