<svg width="44" height="44" viewBox="0 0 44 44" fill="none" xmlns="http://www.w3.org/2000/svg">
<g clip-path="url(#clip0_277_1465)">
<path d="M16.9833 35.3597C20.0156 34.3488 23.9873 34.349 27.0195 35.3597C27.6613 35.5736 28.0522 36.2226 27.9411 36.8901L27.9407 36.8923C27.9404 37.6145 27.2736 39.0747 26.9401 39.7146C26.1723 41.1624 24.763 42.9154 22.3223 43.5011C22.1113 43.5517 21.8915 43.5517 21.6805 43.5011C19.2399 42.9154 17.8305 41.1624 17.0627 39.7146C16.5508 38.887 16.1821 37.4867 16.0618 36.8901C15.9506 36.2228 16.3414 35.5736 16.9833 35.3597Z" fill="url(#paint0_linear_277_1465)"/>
<path d="M39.4591 34.1094C39.8568 34.3958 40.3769 34.4491 40.8242 34.2491C41.2717 34.0491 41.5788 33.6261 41.6305 33.1387L41.6316 33.1332C41.7533 32.7293 41.6996 31.8689 41.6575 31.4883C41.6148 30.5271 41.4637 29.2096 41.0213 27.8108C40.5148 26.2088 39.6173 24.4919 38.0843 23.0995C37.5143 22.5818 37.2294 22.3229 36.9137 22.4432C36.5982 22.5634 36.5535 22.9864 36.4642 23.8327C36.2268 26.0809 35.7725 28.4763 35.0692 31.0226C34.9227 31.5532 34.8494 31.8187 34.9588 32.0154C35.0685 32.2123 35.3407 32.2922 35.8852 32.4521C37.1951 32.8365 38.4403 33.375 39.4591 34.1094Z" fill="url(#paint1_linear_277_1465)"/>
<path d="M4.54024 34.1092C4.14264 34.3958 3.62258 34.4491 3.17516 34.2491C2.72775 34.0491 2.42059 33.626 2.36897 33.1387L2.36783 33.133C2.2461 32.7293 2.29972 31.8687 2.34187 31.4881C2.38468 30.5271 2.53576 29.2096 2.97813 27.8108C3.48471 26.2088 4.38202 24.4919 5.91494 23.0995C6.48489 22.5818 6.76986 22.3229 7.08549 22.4432C7.40114 22.5634 7.44581 22.9866 7.53517 23.8327C7.77259 26.0809 8.22691 28.4763 8.93012 31.0226C9.07666 31.5532 9.14993 31.8185 9.04039 32.0154C8.93085 32.2121 8.65856 32.292 8.11401 32.4519C6.80426 32.8365 5.55911 33.375 4.54024 34.1092Z" fill="url(#paint2_linear_277_1465)"/>
<path opacity="0.4" d="M22.4411 0.533615C22.1549 0.436712 21.8449 0.436712 21.5589 0.533615C18.3432 1.62279 14.1584 4.60268 11.6924 9.97968C9.21329 15.3853 8.53558 23.0647 12.072 33.4459C12.2073 33.8432 12.5165 34.1567 12.9116 34.2977C13.3068 34.4387 13.7446 34.3915 14.1007 34.1697C14.9082 33.6665 17.8369 32.4297 22 32.4297C26.1629 32.4297 29.0917 33.6665 29.8993 34.1697C30.2553 34.3915 30.6931 34.4387 31.0884 34.2977C31.4835 34.1567 31.7926 33.8432 31.9279 33.4459C35.4644 23.0647 34.7866 15.3853 32.3075 9.97968C29.8415 4.60268 25.6568 1.62279 22.4411 0.533615Z" fill="url(#paint3_linear_277_1465)"/>
<path fill-rule="evenodd" clip-rule="evenodd" d="M22.0013 10.0859C24.5326 10.0859 26.5846 12.138 26.5846 14.6693C26.5846 17.2006 24.5326 19.2526 22.0013 19.2526C19.47 19.2526 17.418 17.2006 17.418 14.6693C17.418 12.138 19.47 10.0859 22.0013 10.0859Z" fill="url(#paint4_linear_277_1465)"/>
</g>
<defs>
<linearGradient id="paint0_linear_277_1465" x1="22.0306" y1="34.6875" x2="21.633" y2="43.6073" gradientUnits="userSpaceOnUse">
<stop stop-color="#8159D5"/>
<stop offset="1" stop-color="#6938D0"/>
</linearGradient>
<linearGradient id="paint1_linear_277_1465" x1="38.323" y1="22.529" x2="37.0873" y2="34.3546" gradientUnits="userSpaceOnUse">
<stop stop-color="#8159D5"/>
<stop offset="1" stop-color="#6938D0"/>
</linearGradient>
<linearGradient id="paint2_linear_277_1465" x1="5.70968" y1="22.529" x2="4.474" y2="34.3546" gradientUnits="userSpaceOnUse">
<stop stop-color="#8159D5"/>
<stop offset="1" stop-color="#6938D0"/>
</linearGradient>
<linearGradient id="paint3_linear_277_1465" x1="22.0606" y1="0.787058" x2="19.3163" y2="34.4802" gradientUnits="userSpaceOnUse">
<stop stop-color="#8159D5"/>
<stop offset="1" stop-color="#6938D0"/>
</linearGradient>
<linearGradient id="paint4_linear_277_1465" x1="22.0238" y1="10.1741" x2="21.4808" y2="19.3085" gradientUnits="userSpaceOnUse">
<stop stop-color="#8159D5"/>
<stop offset="1" stop-color="#6938D0"/>
</linearGradient>
<clipPath id="clip0_277_1465">
<rect width="44" height="44" fill="white"/>
</clipPath>
</defs>
</svg>
