<svg width="42" height="42" viewBox="0 0 42 42" fill="none" xmlns="http://www.w3.org/2000/svg">
<path d="M7 28.8752C7 31.7746 9.35051 34.1252 12.25 34.1252C12.25 36.5415 14.2088 38.5002 16.625 38.5002C19.0412 38.5002 21 36.5415 21 34.1252C21 36.5415 22.9588 38.5001 25.375 38.5001C27.7912 38.5001 29.75 36.5413 29.75 34.1251C32.6496 34.1251 35 31.7745 35 28.8751C35 27.8798 34.7232 26.9494 34.2423 26.1564C36.6672 25.6925 38.5 23.5603 38.5 21.0001C38.5 18.4396 36.6672 16.3075 34.2423 15.8436C34.7232 15.0506 35 14.1202 35 13.125C35 10.2255 32.6496 7.875 29.75 7.875C29.75 5.45874 27.7912 3.5 25.375 3.5C22.9588 3.5 21 5.45891 21 7.87516C21 5.45891 19.0412 3.50016 16.625 3.50016C14.2088 3.50016 12.25 5.45891 12.25 7.87516C9.35051 7.87516 7 10.2257 7 13.1252C7 14.1203 7.27689 15.0508 7.75782 15.8438C5.33272 16.3076 3.5 18.4398 3.5 21.0002C3.5 23.5605 5.33272 25.6927 7.75782 26.1566C7.27689 26.9495 7 27.88 7 28.8752Z" stroke="white" stroke-width="2" stroke-linecap="round" stroke-linejoin="round"/>
<path d="M13.125 25.375L16.3483 15.7051C16.5135 15.2094 16.9775 14.875 17.5 14.875C18.0226 14.875 18.4865 15.2094 18.6517 15.7051L21.875 25.375M27.125 14.875V25.375M14.875 21.875H20.125" stroke="white" stroke-width="2" stroke-linecap="round" stroke-linejoin="round"/>
</svg>
