<svg width="42" height="42" viewBox="0 0 42 42" fill="none" xmlns="http://www.w3.org/2000/svg">
<path d="M10.6564 26.248C9.9942 24.7595 9.625 23.1035 9.625 21.3584C9.625 14.8771 14.7178 9.62305 21 9.62305C27.2823 9.62305 32.375 14.8771 32.375 21.3584C32.375 23.1035 32.0058 24.7595 31.3436 26.248" stroke="white" stroke-width="2.625" stroke-linecap="round"/>
<path d="M21 3.49805V5.24805" stroke="white" stroke-width="2.625" stroke-linecap="round" stroke-linejoin="round"/>
<path d="M38.5 20.998H36.75" stroke="white" stroke-width="2.625" stroke-linecap="round" stroke-linejoin="round"/>
<path d="M5.25 20.998H3.5" stroke="white" stroke-width="2.625" stroke-linecap="round" stroke-linejoin="round"/>
<path d="M33.3732 8.62305L32.1357 9.86049" stroke="white" stroke-width="2.625" stroke-linecap="round" stroke-linejoin="round"/>
<path d="M9.8644 9.86244L8.62695 8.625" stroke="white" stroke-width="2.625" stroke-linecap="round" stroke-linejoin="round"/>
<path d="M25.4042 33.784C27.1724 33.2121 27.8815 31.5937 28.081 29.9659C28.1405 29.4795 27.7404 29.0762 27.2504 29.0762L14.8339 29.0765C14.3271 29.0765 13.9201 29.5067 13.9806 30.0098C14.176 31.6345 14.6691 32.8213 16.5429 33.784M25.4042 33.784C25.4042 33.784 16.8514 33.784 16.5429 33.784M25.4042 33.784C25.1915 37.1878 24.2085 38.5358 21.0113 38.498C17.5914 38.5612 16.8047 36.895 16.5429 33.784" stroke="white" stroke-width="2.625" stroke-linecap="round" stroke-linejoin="round"/>
</svg>
