<svg width="42" height="42" viewBox="0 0 42 42" fill="none" xmlns="http://www.w3.org/2000/svg">
<path d="M21 7.875C21 5.45876 19.0412 3.5 16.625 3.5C14.2088 3.5 12.25 5.45876 12.25 7.875C9.35051 7.875 7 10.2255 7 13.125C7 14.1202 7.27689 15.0506 7.75782 15.8436C5.33272 16.3075 3.5 18.4398 3.5 21C3.5 23.5603 5.33272 25.6925 7.75782 26.1564C7.27689 26.9493 7 27.8798 7 28.875C7 31.7746 9.35051 34.125 12.25 34.125C12.25 36.5413 14.2088 38.5 16.625 38.5C19.0412 38.5 21 36.5413 21 34.125" stroke="white" stroke-width="2.625" stroke-linecap="round" stroke-linejoin="round"/>
<path d="M21 34.125C21 36.5413 22.9588 38.5 25.375 38.5C27.7912 38.5 29.75 36.5413 29.75 34.125C32.6496 34.125 35 31.7746 35 28.875C35 27.8798 34.7231 26.9493 34.2422 26.1564C36.6672 25.6925 38.5 23.5603 38.5 21C38.5 18.4398 36.6672 16.3075 34.2422 15.8436C34.7231 15.0506 35 14.1202 35 13.125C35 10.2255 32.6496 7.875 29.75 7.875C29.75 5.45876 27.7912 3.5 25.375 3.5C22.9588 3.5 21 5.45876 21 7.875" stroke="white" stroke-width="2.625" stroke-linecap="round" stroke-linejoin="round"/>
<path d="M18.3523 12.252V15.7152M12.25 18.3776H15.841M26.2904 18.3776H29.8813M26.2904 23.5808H29.8813M12.25 23.5808H15.841M18.3523 26.2856V29.7489M23.6469 26.2856V29.7489M23.628 12.252V15.7152M17.591 26.1952H24.5404C25.5068 26.1952 26.2904 25.4117 26.2904 24.4452V17.4652C26.2904 16.4987 25.5068 15.7152 24.5404 15.7152H17.591C16.6245 15.7152 15.841 16.4987 15.841 17.4652V24.4452C15.841 25.4117 16.6245 26.1952 17.591 26.1952Z" stroke="white" stroke-width="2.625" stroke-linecap="round"/>
</svg>
