<svg width="42" height="42" viewBox="0 0 42 42" fill="none" xmlns="http://www.w3.org/2000/svg">
<path d="M35.875 29.6251V17.5C35.875 10.9003 35.875 7.60051 33.8247 5.55025C31.7746 3.5 28.4746 3.5 21.875 3.5H20.125C13.5253 3.5 10.2255 3.5 8.17525 5.55025C6.125 7.60051 6.125 10.9003 6.125 17.5V34.125" stroke="white" stroke-width="2.625" stroke-linecap="round"/>
<path d="M35.875 29.75H10.5C8.08376 29.75 6.125 31.7088 6.125 34.125C6.125 36.5412 8.08376 38.5 10.5 38.5H35.875" stroke="white" stroke-width="2.625" stroke-linecap="round"/>
<path d="M35.875 38.5C33.4588 38.5 31.5 36.5412 31.5 34.125C31.5 31.7088 33.4588 29.75 35.875 29.75" stroke="white" stroke-width="2.625" stroke-linecap="round"/>
<path d="M21.5385 21L18.9823 13.0881C18.8216 12.5907 18.3284 12.25 17.7692 12.25C17.2099 12.25 16.7169 12.5907 16.5562 13.0881L14 21M26.25 12.25V21M14.9423 18.375H20.5961" stroke="white" stroke-width="2.625" stroke-linecap="round" stroke-linejoin="round"/>
</svg>
