<svg width="42" height="42" viewBox="0 0 42 42" fill="none" xmlns="http://www.w3.org/2000/svg">
<path d="M17.5245 3.5C10.9133 3.5 7.60769 3.5 5.55383 5.55025C3.5 7.60051 3.5 10.9003 3.5 17.5C3.5 24.0996 3.5 27.3996 5.55383 29.4497C7.60769 31.5 10.9133 31.5 17.5245 31.5H24.5367C31.1481 31.5 34.4537 31.5 36.5075 29.4497C37.9243 28.0355 38.3637 26.0265 38.5 22.75" stroke="white" stroke-width="2.625" stroke-linecap="round"/>
<path d="M21 31.5V38.5" stroke="white" stroke-width="2.625"/>
<path d="M14 38.5H28" stroke="white" stroke-width="2.625" stroke-linecap="round"/>
<path d="M19.25 26.25H22.75" stroke="white" stroke-width="2.625" stroke-linecap="round" stroke-linejoin="round"/>
<path d="M31.5 7H28C26.3501 7 25.5252 7 25.0126 7.51256C24.5 8.02513 24.5 8.85008 24.5 10.5V14C24.5 15.6499 24.5 16.4749 25.0126 16.9874C25.5252 17.5 26.3501 17.5 28 17.5H31.5C33.1499 17.5 33.9748 17.5 34.4874 16.9874C35 16.4749 35 15.6499 35 14V10.5C35 8.85008 35 8.02513 34.4874 7.51256C33.9748 7 33.1499 7 31.5 7Z" stroke="white" stroke-width="2.625" stroke-linecap="round" stroke-linejoin="round"/>
<path d="M27.125 17.5V21M32.375 17.5V21M27.125 3.5V7M32.375 3.5V7M24.5 9.625H21M24.5 14.875H21M38.5 9.625H35M38.5 14.875H35" stroke="white" stroke-width="2.625" stroke-linecap="round" stroke-linejoin="round"/>
</svg>
