<svg width="42" height="42" viewBox="0 0 42 42" fill="none" xmlns="http://www.w3.org/2000/svg">
<g clip-path="url(#clip0_140_1011)">
<path d="M25.0312 7.08324C25.3773 6.69521 25.8994 6.51394 26.4114 6.60422C32.1273 7.6121 35.9364 13.052 34.9285 18.768C34.7847 19.5839 34.0067 20.1286 33.1909 19.9847C32.375 19.8409 31.8303 19.0629 31.9741 18.2471C32.4744 15.4101 31.315 12.6697 29.1914 11.0192L27.7971 11.9956C27.5329 12.1805 27.2396 12.3479 26.9173 12.3365C26.2913 12.3144 25.7213 11.8984 25.5328 11.2647L24.7132 8.50909C24.565 8.01081 24.6852 7.47129 25.0312 7.08324Z" fill="white"/>
<path d="M8.51359 21.7214C9.32942 21.8653 9.87419 22.6432 9.73033 23.4591C9.23009 26.2961 10.3895 29.0364 12.5131 30.6869L13.9074 29.7106C14.1716 29.5257 14.4649 29.3582 14.7871 29.3696C15.4132 29.3918 15.9832 29.8078 16.1717 30.4414L16.9913 33.1971C17.1395 33.6954 17.0192 34.2349 16.6733 34.6229C16.3272 35.0109 15.8051 35.1922 15.2931 35.1019C9.57711 34.0941 5.76803 28.6541 6.7759 22.9381C6.91976 22.1223 7.69775 21.5776 8.51359 21.7214Z" fill="white"/>
<g opacity="0.4">
<path d="M22.7533 31.0809C25.7911 30.1063 29.2971 30.7246 31.8182 32.6793C31.8815 32.7282 31.9653 32.7902 32.0641 32.8631C32.536 33.2118 33.3482 33.8116 33.8628 34.4447C34.178 34.8327 34.5523 35.4284 34.5151 36.149C34.4735 36.9559 33.9485 37.5436 33.2779 37.9329C32.2148 38.5499 30.9415 39.0078 29.4338 38.7419L22.9205 37.5935C21.4127 37.3276 20.3728 36.4619 19.585 35.5184C19.088 34.9233 18.7956 34.1915 19.0325 33.419C19.2438 32.7291 19.7995 32.2973 20.2284 32.0406C20.9284 31.6217 21.8967 31.3358 22.4596 31.1695C22.5773 31.1349 22.6773 31.1053 22.7533 31.0809Z" fill="white"/>
<path d="M23.9591 24.8301C24.3888 22.393 26.7142 20.7465 29.1722 21.1799C31.6301 21.6133 33.2521 23.9558 32.8224 26.3929C32.3927 28.83 30.0673 30.4765 27.6093 30.0431C25.1514 29.6097 23.5294 27.2672 23.9591 24.8301Z" fill="white"/>
</g>
<g opacity="0.4">
<path d="M9.10884 13.4405C12.1466 12.466 15.6525 13.0842 18.1737 15.0389C18.2369 15.0878 18.3207 15.1498 18.4195 15.2227C18.8915 15.5714 19.7037 16.1712 20.2182 16.8043C20.5335 17.1923 20.9078 17.7879 20.8706 18.5086C20.829 19.3155 20.3039 19.9032 19.6333 20.2925C18.5703 20.9095 17.297 21.3674 15.7892 21.1015L9.27601 19.9531C7.76825 19.6872 6.72828 18.8215 5.94048 17.878C5.44343 17.2829 5.15109 16.5511 5.38788 15.7786C5.59936 15.0887 6.15486 14.657 6.58386 14.4002C7.28387 13.9813 8.25222 13.6954 8.81503 13.5292C8.93277 13.4944 9.03277 13.4649 9.10884 13.4405Z" fill="white"/>
<path d="M10.3146 7.18994C10.7443 4.75286 13.0697 3.10631 15.5276 3.53972C17.9856 3.97313 19.6076 6.3157 19.1779 8.75277C18.7481 11.1898 16.4228 12.8364 13.9648 12.403C11.5068 11.9696 9.88487 9.62701 10.3146 7.18994Z" fill="white"/>
</g>
</g>
<defs>
<clipPath id="clip0_140_1011">
<rect width="36" height="36" fill="white" transform="translate(6.25134) rotate(10)"/>
</clipPath>
</defs>
</svg>
