<svg width="42" height="42" viewBox="0 0 42 42" fill="none" xmlns="http://www.w3.org/2000/svg">
<g clip-path="url(#clip0_140_1041)">
<path opacity="0.4" fill-rule="evenodd" clip-rule="evenodd" d="M5.37022 16.5903C6.76665 8.7049 14.2928 3.43509 22.1802 4.81987C30.0678 6.20467 35.3298 13.7197 33.9333 21.6051C32.5369 29.4906 25.0108 34.7604 17.1233 33.3756C9.23582 31.9908 3.97378 24.4758 5.37022 16.5903ZM21.6746 7.67544C15.3646 6.56762 9.34368 10.7835 8.22653 17.0918C7.10939 23.4001 11.319 29.4122 17.629 30.52C23.939 31.6278 29.9599 27.4119 31.077 21.1036C32.1942 14.7953 27.9845 8.78327 21.6746 7.67544Z" fill="white"/>
<path d="M23.9536 16.8646C23.3296 17.4346 23.2193 18.441 23.7073 19.1125L24.7123 20.4951L23.2929 21.4522C22.6038 21.9168 22.3617 22.9002 22.7523 23.6482C23.143 24.3963 24.0183 24.6262 24.7076 24.1614L26.2232 23.1395L26.2757 23.104C26.5467 22.9216 26.8625 22.709 27.1086 22.49C27.3935 22.2363 27.8084 21.7841 27.9364 21.0611C28.0644 20.3381 27.8299 19.7719 27.6493 19.4366C27.4933 19.147 27.2696 18.8396 27.0776 18.5759L27.0404 18.5247L25.9673 17.0483C25.4792 16.3768 24.5777 16.2946 23.9536 16.8646Z" fill="white"/>
<path d="M15.3911 15.3594C15.7817 16.1076 15.5397 17.0908 14.8504 17.5556L13.4311 18.5125L14.4361 19.8953C14.9241 20.5666 14.8138 21.5731 14.1898 22.143C13.5657 22.713 12.6642 22.6309 12.1762 21.9594L11.1031 20.483L11.0658 20.4318C10.8739 20.1681 10.6502 19.8607 10.4942 19.5712C10.3136 19.2357 10.079 18.6695 10.207 17.9465C10.3351 17.2235 10.75 16.7713 11.0349 16.5177C11.281 16.2987 11.5968 16.0861 11.8677 15.9036L11.9203 15.8682L13.4358 14.8462C14.1251 14.3815 15.0005 14.6113 15.3911 15.3594Z" fill="white"/>
<path fill-rule="evenodd" clip-rule="evenodd" d="M23.1097 14.2355C23.8109 14.6858 24.02 15.651 23.5764 16.3912L19.2519 23.6087C18.8085 24.3488 17.8805 24.5839 17.1792 24.1334C16.4779 23.6831 16.2689 22.7181 16.7124 21.9779L21.0368 14.7603C21.4803 14.0201 22.4084 13.7852 23.1097 14.2355Z" fill="white"/>
<path d="M26.9994 32.0835L31.5068 38.5206C31.959 39.1666 32.8501 39.3231 33.497 38.87C34.144 38.4171 34.3018 37.5262 33.8493 36.8803L29.342 30.4432C28.6192 31.068 27.8338 31.6179 26.9994 32.0835Z" fill="white"/>
</g>
<defs>
<clipPath id="clip0_140_1041">
<rect width="36" height="36" fill="white" transform="matrix(0.984935 0.172922 -0.174377 0.984679 6.27759 0)"/>
</clipPath>
</defs>
</svg>
