<svg width="42" height="42" viewBox="0 0 42 42" fill="none" xmlns="http://www.w3.org/2000/svg">
<g clip-path="url(#clip0_140_1055)">
<g opacity="0.4">
<path d="M35.2928 15.008C35.4452 15.1139 35.4827 15.3196 35.5577 15.7307C35.6934 16.4735 35.8323 17.2607 35.9792 18.094L36.009 18.263C36.5796 21.4992 37.0278 24.041 37.1109 26.0725C37.1961 28.1543 36.9089 29.8686 35.8647 31.3599C34.8205 32.8512 33.3077 33.7074 31.3224 34.3394C29.385 34.9561 26.8431 35.4043 23.607 35.9749L23.438 36.0047C22.6047 36.1516 21.8175 36.2904 21.0731 36.417C20.6611 36.487 20.455 36.5221 20.3033 36.4152C20.1516 36.3083 20.1151 36.1015 20.0422 35.6881L17.0992 18.997C17.0255 18.5793 16.9886 18.3703 17.0956 18.2176C17.2025 18.0649 17.4114 18.0281 17.8292 17.9544L34.5202 15.0113C34.9337 14.9384 35.1405 14.902 35.2928 15.008Z" fill="white"/>
<path d="M13.8435 18.6599C14.2613 18.5862 14.4702 18.5494 14.6229 18.6563C14.7756 18.7632 14.8124 18.9721 14.8861 19.3899L17.8091 35.9673C17.8865 36.4061 17.9252 36.6254 17.8069 36.7818C17.6887 36.9382 17.4711 36.9603 17.036 37.0047C16.5422 37.0551 16.0746 37.0906 15.6313 37.1088C13.5495 37.1939 11.8352 36.9068 10.3439 35.8626C8.85263 34.8183 7.99637 33.3056 7.36439 31.3203C6.74767 29.3828 6.29949 26.841 5.72889 23.6049L5.69909 23.4359C5.55219 22.6027 5.41331 21.8152 5.28677 21.0709C5.21673 20.659 5.18168 20.4529 5.28861 20.3012C5.39551 20.1495 5.60223 20.113 6.01567 20.0401L13.8435 18.6599Z" fill="white"/>
</g>
<path fill-rule="evenodd" clip-rule="evenodd" d="M21.4848 22.2655C21.377 21.6536 21.7855 21.0701 22.3974 20.9622L28.3062 19.9203C28.9181 19.8125 29.5016 20.221 29.6095 20.8329C29.7174 21.4448 29.3088 22.0283 28.697 22.1362L22.7881 23.178C22.1762 23.2859 21.5927 22.8774 21.4848 22.2655Z" fill="white"/>
<path fill-rule="evenodd" clip-rule="evenodd" d="M22.5267 28.1717C22.4188 27.5599 22.8274 26.9764 23.4393 26.8685L26.3937 26.3475C27.0056 26.2396 27.5891 26.6482 27.697 27.2601C27.8048 27.872 27.3963 28.4555 26.7844 28.5634L23.83 29.0843C23.2181 29.1922 22.6346 28.7836 22.5267 28.1717Z" fill="white"/>
<path fill-rule="evenodd" clip-rule="evenodd" d="M18.0989 5.72441L18.2679 5.69461C21.504 5.12398 24.0459 4.67577 26.0774 4.59265C28.1591 4.5075 29.8735 4.79473 31.3648 5.83892C32.8561 6.88312 33.7122 8.39582 34.3443 10.3812C34.4788 10.804 34.6054 11.2556 34.7269 11.7368C34.834 12.1609 34.8877 12.3729 34.7811 12.5375C34.6746 12.7021 34.4552 12.7408 34.0165 12.8181L5.7365 17.8046C5.29778 17.882 5.07843 17.9207 4.92203 17.8024C4.76562 17.6842 4.74342 17.4667 4.69902 17.0316C4.64864 16.5377 4.61311 16.0701 4.59497 15.6268C4.50981 13.545 4.79705 11.8307 5.84124 10.3394C6.88545 8.84814 8.39813 7.9919 10.3835 7.3599C12.321 6.74318 14.8628 6.29501 18.0989 5.72441ZM10.1656 12.0735C10.0218 11.2576 10.5636 10.4802 11.3758 10.3369L11.389 10.3346C12.2012 10.1914 12.9762 10.7367 13.1201 11.5525C13.2639 12.3684 12.7221 13.1458 11.9099 13.289L11.8967 13.2914C11.0845 13.4346 10.3095 12.8893 10.1656 12.0735ZM17.2846 9.29506C16.4724 9.43827 15.9306 10.2157 16.0745 11.0316C16.2183 11.8474 16.9933 12.3927 17.8055 12.2495L17.8188 12.2471C18.631 12.1039 19.1728 11.3265 19.0289 10.5106C18.8851 9.6948 18.11 9.14951 17.2979 9.29272L17.2846 9.29506Z" fill="white"/>
</g>
<defs>
<clipPath id="clip0_140_1055">
<rect width="36" height="36" fill="white" transform="translate(0 6.25133) rotate(-10)"/>
</clipPath>
</defs>
</svg>
