<svg width="42" height="42" viewBox="0 0 42 42" fill="none" xmlns="http://www.w3.org/2000/svg">
<g clip-path="url(#clip0_140_1028)">
<path d="M21.4948 6.15044L20.2771 4.97176C20.1076 4.80764 20.0229 4.72557 19.9103 4.69534C19.7979 4.6651 19.6891 4.69218 19.4714 4.74636C16.9913 5.36353 14.877 6.75143 13.3421 8.60493C13.261 8.70282 13.3455 8.84007 13.4717 8.82539C14.9354 8.65525 15.8482 9.32412 16.85 10.0679C18.3984 11.2176 19.4045 10.9226 19.8408 10.5834C20.0191 10.4448 20.0423 10.3649 20.0502 10.3374L20.0508 10.3354C20.0761 10.2491 20.0776 10.1615 20.0795 9.83017C20.0811 9.55328 20.0848 9.07779 20.3007 8.58126C20.529 8.05617 20.9331 7.63145 21.5029 7.28055C21.7405 7.13426 21.7941 6.97865 21.7988 6.83999C21.8048 6.66721 21.7295 6.4072 21.4948 6.15044Z" fill="white"/>
<path d="M26.5259 26.4908C26.7207 26.6029 26.818 26.6592 26.9293 26.6633C27.0406 26.6675 27.1368 26.6213 27.3294 26.529C30.7959 24.8645 33.2164 21.5684 33.7886 17.7871C33.8636 17.2909 33.9012 17.0429 33.736 16.8816C33.5708 16.7205 33.31 16.7665 32.7886 16.8584L32.3493 16.9359C31.611 17.0661 31.2548 17.4097 30.734 17.9224L30.7154 17.9406C30.1768 18.4707 29.3903 19.245 27.9572 19.2121C26.0686 19.1688 25.2134 19.4196 24.868 19.6598C24.7392 19.7494 24.695 19.8277 24.6694 19.9148C24.6354 20.0304 24.6169 20.234 24.6773 20.5763L24.7001 20.7051C24.8336 21.4602 24.9345 22.0308 24.8967 22.574C24.8573 23.1393 24.6704 23.6471 24.4404 24.2722L24.401 24.3789C24.2518 24.7854 24.2469 24.9968 24.2679 25.091C24.275 25.1228 24.2862 25.149 24.3151 25.1832C24.3485 25.2225 24.4278 25.2971 24.6025 25.3844C24.6225 25.3943 24.6422 25.4049 24.6614 25.4161L26.5259 26.4908Z" fill="white"/>
<path opacity="0.4" d="M23.4528 5.02912C23.2533 4.74061 23.1535 4.59635 23.2041 4.51319C23.2544 4.43007 23.4141 4.45008 23.7334 4.49013C28.661 5.10845 32.8252 8.86546 33.7332 14.0149C33.7695 14.2209 33.6289 14.4143 33.423 14.4506L31.9518 14.71C30.5139 14.9636 29.7309 15.7354 29.1933 16.2653L29.1495 16.3085C28.6287 16.8209 28.4391 16.9628 28.0019 16.9526C26.0671 16.9083 24.5604 17.1187 23.5771 17.8024C23.0417 18.1747 22.68 18.6741 22.5045 19.2692C22.3376 19.836 22.3599 20.4194 22.4549 20.9583C22.621 21.9003 22.6616 22.1772 22.6456 22.4082C22.6311 22.6157 22.5697 22.8113 22.2826 23.5934C22.0837 24.1346 21.903 24.8424 22.0651 25.5708C22.242 26.3664 22.7742 26.9721 23.5585 27.3732C23.6621 27.4329 23.6305 27.5879 23.5116 27.6006C17.4851 28.2455 11.9051 24.1134 10.8364 18.0523C10.4777 16.0179 10.6708 14.014 11.3083 12.1942C11.4311 11.8436 11.4925 11.6682 11.6475 11.5365C11.8025 11.4049 12.0015 11.3698 12.3994 11.2996L13.7557 11.0605C14.226 11.0114 14.4895 11.1251 15.5033 11.8779C17.6339 13.4598 19.777 13.4816 21.2154 12.3634C21.7357 11.959 22.0509 11.4923 22.2037 10.972C22.325 10.5587 22.3239 10.1476 22.3233 9.9162L22.3234 9.84554C22.3249 9.58105 22.342 9.51836 22.3579 9.48173C22.3631 9.46949 22.4064 9.36628 22.6764 9.2C23.542 8.66696 24.0098 7.82855 24.0413 6.92077C24.0654 6.22807 23.8351 5.58194 23.4528 5.02912Z" fill="white"/>
<path fill-rule="evenodd" clip-rule="evenodd" d="M11.0033 6.29829C11.6752 6.78296 11.8269 7.72052 11.3422 8.39236C9.30231 11.2201 8.36702 14.8169 9.01611 18.4981C10.2969 25.7618 17.2796 30.6236 24.6338 29.3269C28.2617 28.6872 31.2923 26.6703 33.2798 23.9153C33.7645 23.2434 34.702 23.0918 35.3739 23.5764C36.0457 24.061 36.1975 24.9986 35.7128 25.6705C33.2848 29.0361 29.579 31.5012 25.1547 32.2813L25.4152 33.7585L26.8924 33.498C27.7083 33.3542 28.4862 33.8989 28.6301 34.7148C28.7739 35.5306 28.2292 36.3086 27.4133 36.4524L21.5045 37.4943C20.6887 37.6382 19.9107 37.0935 19.7668 36.2776C19.623 35.4617 20.1677 34.6838 20.9836 34.5399L22.4608 34.2794L22.1534 32.5362C14.3543 32.4903 7.45727 26.9338 6.06169 19.019C5.26553 14.5038 6.41713 10.0917 8.90925 6.63721C9.39392 5.96535 10.3315 5.81362 11.0033 6.29829Z" fill="white"/>
</g>
<defs>
<clipPath id="clip0_140_1028">
<rect width="36" height="36" fill="white" transform="translate(0 6.25133) rotate(-10)"/>
</clipPath>
</defs>
</svg>
